<svg xmlns="http://www.w3.org/2000/svg" width="10.444" height="7.224" viewBox="0 0 10.444 7.224">
  <path id="Arrow_Down" data-name="Arrow Down" d="M472.786,46.684q2.2,2.276,4.307,4.642c-.093-.346-.182-.695-.274-1.04-.007.025-.011.053-.018.078a1.076,1.076,0,0,0,1.785,1.04,63.269,63.269,0,0,0,4.068-5.055c.887-1.044-.62-2.561-1.51-1.51a61.87,61.87,0,0,1-4.068,5.055c.595.346,1.19.695,1.785,1.04.228-.983-.72-1.642-1.314-2.294q-1.6-1.758-3.249-3.462c-.958-.994-2.469.517-1.51,1.507Z" transform="translate(-472.48 -44.484)" fill="#c9c8c8"/>
</svg>
