<svg xmlns="http://www.w3.org/2000/svg" xmlns:xlink="http://www.w3.org/1999/xlink" width="390" height="299" viewBox="0 0 390 299">
  <defs>
    <clipPath id="clip-path">
      <rect id="Rectangle_196" data-name="Rectangle 196" width="390" height="299" fill="#fff"/>
    </clipPath>
    <linearGradient id="linear-gradient" x1="0.5" x2="0.5" y2="1" gradientUnits="objectBoundingBox">
      <stop offset="0" stop-color="#c1bcfd"/>
      <stop offset="1" stop-color="#3489e0"/>
    </linearGradient>
  </defs>
  <g id="Credit_card" data-name="Credit card" clip-path="url(#clip-path)">
    <path id="Tracé_37" data-name="Tracé 37" d="M343.344,55.722,18.851,134.544l8.595,24.594L351.939,80.316Z" transform="translate(-10.344 -28.644)" fill="url(#linear-gradient)"/>
    <path id="Tracé_38" data-name="Tracé 38" d="M48.024,218.869.2,82.013a3.4,3.4,0,0,1,.4-3.032,4.712,4.712,0,0,1,2.853-1.909L320.075.161a5.642,5.642,0,0,1,3.636.334A4.222,4.222,0,0,1,326,2.872l42.371,121.245-1.311.319L324.69,3.191a3.017,3.017,0,0,0-1.636-1.7,4.032,4.032,0,0,0-2.6-.239L3.83,78.165a3.368,3.368,0,0,0-2.038,1.364,2.43,2.43,0,0,0-.285,2.165L49.335,218.551Z" transform="translate(-0.748 -0.002)" fill="#666"/>
    <path id="Tracé_39" data-name="Tracé 39" d="M594.8,217.387a5.055,5.055,0,0,1-2.663-.742,3.78,3.78,0,0,1-1.6-1.924l-8.022-22.954a3.164,3.164,0,0,1,.372-2.815,4.383,4.383,0,0,1,2.647-1.773l27.533-6.688a5.238,5.238,0,0,1,3.375.31,3.92,3.92,0,0,1,2.127,2.208l8.022,22.954a3.163,3.163,0,0,1-.372,2.815,4.379,4.379,0,0,1-2.648,1.773l-27.533,6.688a5.238,5.238,0,0,1-1.239.148Z" transform="translate(-297.256 -92.708)" fill="url(#linear-gradient)"/>
    <path id="Tracé_40" data-name="Tracé 40" d="M79.667,164.431a5.98,5.98,0,0,0-.294-.694,7.538,7.538,0,0,0-4.024-3.554,9.7,9.7,0,0,0-5.842-.4,8.192,8.192,0,0,0-4.67,2.955,5.9,5.9,0,0,0-1.107,4.8,5.6,5.6,0,0,0,.2.717,6.978,6.978,0,0,0,2.954,3.551,9.33,9.33,0,0,0,4.918,1.367,9.54,9.54,0,0,0,2.287-.273,8.088,8.088,0,0,0,4.888-3.271,5.838,5.838,0,0,0,.69-5.194ZM73.706,171.8a8.062,8.062,0,0,1-5.193-.476,6.034,6.034,0,0,1-3.273-3.394,5.621,5.621,0,0,1-.191-.717,4.935,4.935,0,0,1,.984-3.932,6.84,6.84,0,0,1,3.853-2.411,8.082,8.082,0,0,1,4.8.311,6.33,6.33,0,0,1,3.36,2.878,4.287,4.287,0,0,1,.307.689,4.863,4.863,0,0,1-.575,4.329,6.737,6.737,0,0,1-4.075,2.724Z" transform="translate(-33.131 -81.996)" fill="url(#linear-gradient)"/>
    <path id="Tracé_41" data-name="Tracé 41" d="M50.2,172.41a5.279,5.279,0,0,1,.12-3.815,6.519,6.519,0,0,1,2.753-3.049,8.83,8.83,0,0,0-3.477.555,7.475,7.475,0,0,0-2.786,1.821,5.849,5.849,0,0,0-1.476,2.682,5.259,5.259,0,0,0,.162,2.948,6.1,6.1,0,0,0,1.763,2.559,7.8,7.8,0,0,0,2.973,1.6,8.931,8.931,0,0,0,3.523.289,8.434,8.434,0,0,0,3.29-1.089,8.456,8.456,0,0,1-4.287-1.339A6.344,6.344,0,0,1,50.2,172.41Z" transform="translate(-23.757 -85.097)" fill="url(#linear-gradient)"/>
    <path id="Tracé_42" data-name="Tracé 42" d="M430.465,235.072a3.263,3.263,0,0,0-.726-1.2,4.013,4.013,0,0,0-1.222-.876,4.712,4.712,0,0,0-1.531-.418,4.924,4.924,0,0,0-1.606.1l-45.332,10.571-4.882,1.139h30.658l4.882-1.139,16.9-3.939a4.093,4.093,0,0,0,2.483-1.627,2.942,2.942,0,0,0,.378-2.614Z" transform="translate(-191.769 -119.546)" fill="#666"/>
    <path id="Tracé_43" data-name="Tracé 43" d="M343.525,218.829a3.624,3.624,0,0,0-1.951-2.071,4.865,4.865,0,0,0-3.136-.314L270.417,232.3a4.184,4.184,0,0,0-2.321,1.41,3.015,3.015,0,0,0-.663,2.33h17.609l4.889-1.139,50.732-11.829a4.094,4.094,0,0,0,2.484-1.63,2.947,2.947,0,0,0,.377-2.617Z" transform="translate(-136.9 -111.2)" fill="#666"/>
    <path id="Tracé_44" data-name="Tracé 44" d="M432.187,254.566H102.395a5.311,5.311,0,0,0-3.378,1.169,3.686,3.686,0,0,0-1.4,2.816V421.358a3.688,3.688,0,0,0,1.4,2.816,5.308,5.308,0,0,0,3.378,1.168H432.187a5.308,5.308,0,0,0,3.378-1.168,3.687,3.687,0,0,0,1.4-2.816V258.551a3.687,3.687,0,0,0-1.4-2.816,5.31,5.31,0,0,0-3.378-1.169ZM435.6,421.358a2.632,2.632,0,0,1-1,2.012,3.788,3.788,0,0,1-2.414.834H102.395a3.788,3.788,0,0,1-2.414-.834,2.632,2.632,0,0,1-1-2.012V258.551a2.632,2.632,0,0,1,1-2.012,3.788,3.788,0,0,1,2.414-.834H432.187a3.788,3.788,0,0,1,2.414.834,2.632,2.632,0,0,1,1,2.012Z" transform="translate(-50.448 -130.862)" fill="#666"/>
    <path id="Tracé_45" data-name="Tracé 45" d="M164.23,285.8a9.392,9.392,0,0,1-4.552-1.151,7.268,7.268,0,0,1-3.018-3.065,5.786,5.786,0,0,1-.466-3.947,6.574,6.574,0,0,1,2.243-3.5,8.8,8.8,0,0,1,4.2-1.869,9.717,9.717,0,0,1,4.734.389,8.05,8.05,0,0,1,3.677,2.516,6.057,6.057,0,0,1,1.381,3.8,6.32,6.32,0,0,1-2.4,4.828,9.094,9.094,0,0,1-5.791,2Zm0-12.523a7.832,7.832,0,0,0-3.794.959,6.06,6.06,0,0,0-2.515,2.555,4.819,4.819,0,0,0-.389,3.289A5.476,5.476,0,0,0,159.4,283a7.336,7.336,0,0,0,3.5,1.558,8.106,8.106,0,0,0,3.945-.324,6.712,6.712,0,0,0,3.064-2.1,5.047,5.047,0,0,0,1.15-3.163,5.268,5.268,0,0,0-2-4.024,7.581,7.581,0,0,0-4.826-1.669Z" transform="translate(-80.195 -139.896)" fill="url(#linear-gradient)"/>
    <path id="Tracé_46" data-name="Tracé 46" d="M141.7,279.574a5.586,5.586,0,0,1,1.395-3.635,7.547,7.547,0,0,1,3.666-2.284,8.928,8.928,0,0,0-3.524-.278,8.406,8.406,0,0,0-3.285,1.1,6.758,6.758,0,0,0-2.317,2.231,5.346,5.346,0,0,0,0,5.736,6.758,6.758,0,0,0,2.317,2.231,8.407,8.407,0,0,0,3.285,1.1,8.928,8.928,0,0,0,3.524-.278,7.547,7.547,0,0,1-3.666-2.284,5.586,5.586,0,0,1-1.395-3.635Z" transform="translate(-70.401 -140.498)" fill="url(#linear-gradient)"/>
    <path id="Tracé_47" data-name="Tracé 47" d="M234.024,425.184a6.825,6.825,0,0,1-4.343-1.5,4.742,4.742,0,0,1-1.8-3.621v-15.37a4.734,4.734,0,0,1,1.8-3.623,7.042,7.042,0,0,1,8.691,0,4.734,4.734,0,0,1,1.8,3.623v15.37a4.742,4.742,0,0,1-1.8,3.621,6.825,6.825,0,0,1-4.343,1.5Z" transform="translate(-116.775 -205.401)" fill="url(#linear-gradient)"/>
    <path id="Tracé_48" data-name="Tracé 48" d="M267.411,425.184a6.824,6.824,0,0,1-4.343-1.5,4.741,4.741,0,0,1-1.8-3.621v-15.37a4.734,4.734,0,0,1,1.8-3.623,7.042,7.042,0,0,1,8.691,0,4.734,4.734,0,0,1,1.8,3.623v15.37a4.741,4.741,0,0,1-1.8,3.621,6.824,6.824,0,0,1-4.343,1.5Z" transform="translate(-133.775 -205.401)" fill="url(#linear-gradient)"/>
    <path id="Tracé_49" data-name="Tracé 49" d="M300.8,425.184a6.824,6.824,0,0,1-4.343-1.5,4.741,4.741,0,0,1-1.8-3.621v-15.37a4.734,4.734,0,0,1,1.8-3.623,7.042,7.042,0,0,1,8.691,0,4.734,4.734,0,0,1,1.8,3.623v15.37a4.741,4.741,0,0,1-1.8,3.621,6.824,6.824,0,0,1-4.343,1.5Z" transform="translate(-150.774 -205.401)" fill="url(#linear-gradient)"/>
    <path id="Tracé_50" data-name="Tracé 50" d="M352.269,425.184a6.824,6.824,0,0,1-4.343-1.5,4.741,4.741,0,0,1-1.8-3.621v-15.37a4.734,4.734,0,0,1,1.8-3.623,7.042,7.042,0,0,1,8.691,0,4.734,4.734,0,0,1,1.8,3.623v15.37a4.741,4.741,0,0,1-1.8,3.621,6.824,6.824,0,0,1-4.343,1.5Z" transform="translate(-176.982 -205.401)" fill="url(#linear-gradient)"/>
    <path id="Tracé_51" data-name="Tracé 51" d="M385.655,425.184a6.824,6.824,0,0,1-4.343-1.5,4.741,4.741,0,0,1-1.8-3.621v-15.37a4.734,4.734,0,0,1,1.8-3.623,7.042,7.042,0,0,1,8.691,0,4.735,4.735,0,0,1,1.8,3.623v15.37a4.742,4.742,0,0,1-1.8,3.621,6.824,6.824,0,0,1-4.343,1.5Z" transform="translate(-193.981 -205.401)" fill="url(#linear-gradient)"/>
    <path id="Tracé_52" data-name="Tracé 52" d="M419.043,425.184a6.824,6.824,0,0,1-4.343-1.5,4.743,4.743,0,0,1-1.8-3.621v-15.37a4.735,4.735,0,0,1,1.8-3.623,7.042,7.042,0,0,1,8.691,0,4.734,4.734,0,0,1,1.8,3.623v15.37a4.741,4.741,0,0,1-1.8,3.621,6.824,6.824,0,0,1-4.343,1.5Z" transform="translate(-210.981 -205.401)" fill="url(#linear-gradient)"/>
    <path id="Tracé_53" data-name="Tracé 53" d="M470.514,425.184a6.824,6.824,0,0,1-4.343-1.5,4.741,4.741,0,0,1-1.8-3.621v-15.37a4.734,4.734,0,0,1,1.8-3.623,7.042,7.042,0,0,1,8.691,0,4.734,4.734,0,0,1,1.8,3.623v15.37a4.743,4.743,0,0,1-1.8,3.621,6.826,6.826,0,0,1-4.343,1.5Z" transform="translate(-237.189 -205.401)" fill="url(#linear-gradient)"/>
    <path id="Tracé_54" data-name="Tracé 54" d="M503.9,425.184a6.824,6.824,0,0,1-4.343-1.5,4.742,4.742,0,0,1-1.8-3.621v-15.37a4.734,4.734,0,0,1,1.8-3.623,7.042,7.042,0,0,1,8.691,0,4.734,4.734,0,0,1,1.8,3.623v15.37a4.741,4.741,0,0,1-1.8,3.621,6.824,6.824,0,0,1-4.343,1.5Z" transform="translate(-254.188 -205.401)" fill="url(#linear-gradient)"/>
    <path id="Tracé_55" data-name="Tracé 55" d="M537.287,425.184a6.826,6.826,0,0,1-4.343-1.5,4.742,4.742,0,0,1-1.8-3.621v-15.37a4.734,4.734,0,0,1,1.8-3.623,7.042,7.042,0,0,1,8.691,0,4.734,4.734,0,0,1,1.8,3.623v15.37a4.742,4.742,0,0,1-1.8,3.621,6.825,6.825,0,0,1-4.343,1.5Z" transform="translate(-271.188 -205.401)" fill="url(#linear-gradient)"/>
    <path id="Tracé_56" data-name="Tracé 56" d="M588.758,425.184a6.824,6.824,0,0,1-4.343-1.5,4.742,4.742,0,0,1-1.8-3.621v-15.37a4.734,4.734,0,0,1,1.8-3.623,7.042,7.042,0,0,1,8.691,0,4.734,4.734,0,0,1,1.8,3.623v15.37a4.743,4.743,0,0,1-1.8,3.621,6.824,6.824,0,0,1-4.343,1.5Z" transform="translate(-297.395 -205.401)" fill="url(#linear-gradient)"/>
    <path id="Tracé_57" data-name="Tracé 57" d="M622.145,425.184a6.825,6.825,0,0,1-4.343-1.5,4.742,4.742,0,0,1-1.8-3.621v-15.37a4.734,4.734,0,0,1,1.8-3.623,7.042,7.042,0,0,1,8.691,0,4.734,4.734,0,0,1,1.8,3.623v15.37a4.743,4.743,0,0,1-1.8,3.621,6.825,6.825,0,0,1-4.343,1.5Z" transform="translate(-314.395 -205.401)" fill="url(#linear-gradient)"/>
    <path id="Tracé_58" data-name="Tracé 58" d="M655.532,425.184a6.823,6.823,0,0,1-4.343-1.5,4.741,4.741,0,0,1-1.8-3.621v-15.37a4.734,4.734,0,0,1,1.8-3.623,7.042,7.042,0,0,1,8.691,0,4.735,4.735,0,0,1,1.8,3.623v15.37a4.74,4.74,0,0,1-1.8,3.621,6.824,6.824,0,0,1-4.343,1.5Z" transform="translate(-331.395 -205.401)" fill="url(#linear-gradient)"/>
    <path id="Tracé_59" data-name="Tracé 59" d="M229.314,562.34H140.932a4.58,4.58,0,0,1-2.92-1.008,3.054,3.054,0,0,1,0-4.868,4.58,4.58,0,0,1,2.92-1.008h88.382a4.58,4.58,0,0,1,2.92,1.008,3.054,3.054,0,0,1,0,4.868A4.58,4.58,0,0,1,229.314,562.34Z" transform="translate(-70.402 -285.536)" fill="#666"/>
    <path id="Tracé_60" data-name="Tracé 60" d="M230.373,531.882h-31.71a4.583,4.583,0,0,1-2.92-1.008,3.055,3.055,0,0,1,0-4.869,4.583,4.583,0,0,1,2.92-1.008h31.71a4.58,4.58,0,0,1,2.919,1.008,3.055,3.055,0,0,1,0,4.869,4.581,4.581,0,0,1-2.919,1.008Z" transform="translate(-99.797 -269.879)" fill="#666"/>
    <path id="Tracé_61" data-name="Tracé 61" d="M436.516,324.6H99.9v1.139h336.62Z" transform="translate(-51.61 -166.861)" fill="#666"/>
  </g>
</svg>
