<svg id="online-payment-svg" xmlns="http://www.w3.org/2000/svg" xmlns:xlink="http://www.w3.org/1999/xlink" width="193" height="125.714" viewBox="0 0 193 125.714">
  <defs>
    <linearGradient id="linear-gradient" x1="0.5" x2="0.5" y2="1" gradientUnits="objectBoundingBox">
      <stop offset="0" stop-color="#64c4b9"/>
      <stop offset="0.655" stop-color="#45d3cb"/>
      <stop offset="1" stop-color="#19e8e3"/>
    </linearGradient>
    <linearGradient id="linear-gradient-3" x1="0.5" x2="0.5" y2="1" gradientUnits="objectBoundingBox">
      <stop offset="0" stop-color="#c1bcfd"/>
      <stop offset="1" stop-color="#3489e0"/>
    </linearGradient>
  </defs>
  <path id="Tracé_62" data-name="Tracé 62" d="M168.616,545.568l-1.159-4.943a56.5,56.5,0,0,0-6.3-2.443l-.146,2.3-.593-2.531c-2.654-.82-4.459-1.18-4.459-1.18s2.439,10.028,7.554,17.695l5.96,1.132-4.63.722a25.256,25.256,0,0,0,2.071,2.373c7.441,7.469,15.729,10.9,18.512,7.654s-.994-11.924-8.435-19.393a31.452,31.452,0,0,0-8.105-5.636Z" transform="translate(-155.96 -453.521)" fill="#e6e6e6"/>
  <path id="Tracé_63" data-name="Tracé 63" d="M233.442,503.821l1.371-4.879a63.5,63.5,0,0,0-4.223-5.611l-1.223,1.885.7-2.5c-1.88-2.185-3.253-3.5-3.253-3.5s-2.706,9.948-1.992,19.369l4.561,4.3-4.309-1.97a27.8,27.8,0,0,0,.638,3.19c2.8,10.552,8.257,18.118,12.188,16.9s4.849-10.763,2.05-21.315a35.4,35.4,0,0,0-4.245-9.355Z" transform="translate(-209.763 -417.142)" fill="#e6e6e6"/>
  <rect id="Rectangle_198" data-name="Rectangle 198" width="192.983" height="0.527" transform="translate(0.017 114.595)" fill="#1f2324"/>
  <path id="Tracé_64" data-name="Tracé 64" d="M277.956,431.314s-1.5,19.539-1.826,23.726a31.838,31.838,0,0,1-1.613,7.676,7.677,7.677,0,0,0-.645,2.791V483.3a1.008,1.008,0,0,0-.968,1.4c.323,1.4.645,3.838.645,3.838h4.84a1.113,1.113,0,0,1,.645-1.4c.968-.349,0-3.14,0-3.14l5.163-20.935,7.744-17.445s4.517,15.7,5.485,17.445c0,0,3.549,19.539,4.195,21.284s.968,1.745.645,2.442a1.663,1.663,0,0,0,0,1.745c.323.349,6.453,0,6.453,0l-1.613-24.773-2.9-29.657-14.843-4.885Z" transform="translate(-247.449 -371.247)" fill="#2f2e41"/>
  <path id="Tracé_65" data-name="Tracé 65" d="M262.713,659.154s-1.613-6.281-4.195-1.4-2.581,6.629-2.581,6.629-4.195,6.629,1.613,5.931,4.517-3.838,4.517-3.838,2.259-1.4,2.259-2.442S262.713,659.154,262.713,659.154Z" transform="translate(-233.063 -544.656)" fill="#2f2e41"/>
  <path id="Tracé_66" data-name="Tracé 66" d="M406.848,656.185s1.613-6.28,4.195-1.4,2.581,6.629,2.581,6.629,4.195,6.629-1.613,5.932-4.517-3.838-4.517-3.838-2.259-1.4-2.259-2.442S406.848,656.185,406.848,656.185Z" transform="translate(-351.062 -542.385)" fill="#2f2e41"/>
  <path id="Tracé_67" data-name="Tracé 67" d="M336.879,237.686s.645,4.536-1.291,5.583,4.195,4.885,5.808,4.885,4.518-3.489,4.518-3.489-1.613-5.234-1.291-6.28Z" transform="translate(-296.258 -224.721)" fill="#a0616a"/>
  <ellipse id="Ellipse_1" data-name="Ellipse 1" cx="6.776" cy="7.327" rx="6.776" ry="7.327" transform="translate(37.394 1.8)" fill="#a0616a"/>
  <path id="Tracé_68" data-name="Tracé 68" d="M322.044,265.888l-8.067-5.285s-4.59,5.634-9.555-.647l-8.515,2.442,1.291,23.726s-1.936,9.421-1.291,11.165-1.613,2.442-.968,2.791,0,2.791,0,2.791,12.584,6.978,26.459,1.744l-1.291-4.536a3.892,3.892,0,0,0-.645-3.489,3.283,3.283,0,0,0-.323-3.838s.645-3.14-.968-4.536l-.323-4.885.968-2.442Z" transform="translate(-264.644 -241.759)" fill="#cfcce0"/>
  <path id="Tracé_69" data-name="Tracé 69" d="M330.016,188.239s-.808,1.89,2.423,1.134c0,0,1.212.756,1.212-.378,0,0,1.616,1.89,2.02.756s1.212.378,1.212.378l.808-1.89.808,1.134h2.827s.808-7.562-8.886-6.806-4.925,12.737-4.925,12.737.078-2.151.886-1.016S330.016,188.239,330.016,188.239Z" transform="translate(-289.313 -182.515)" fill="#2f2e41"/>
  <path id="Tracé_70" data-name="Tracé 70" d="M411.62,344.589l.323,7.327s1.291,13.608-1.291,19.539v3.14s-.645,8.025-3.872,7.676.968-11.514.968-11.514l-.645-15.352-.645-8.723Z" transform="translate(-351.316 -306.503)" fill="#a0616a"/>
  <path id="Tracé_71" data-name="Tracé 71" d="M393.291,284.842l3.219-.565a17.427,17.427,0,0,1,4.525,8.939c.968,5.583,1.291,6.629,1.291,6.629l-7.744,2.094-4.195-8.723Z" transform="translate(-339.441 -260.363)" fill="#cfcce0"/>
  <rect id="Rectangle_199" data-name="Rectangle 199" width="50.921" height="27.352" transform="translate(39.991 20.497)" fill="#fff"/>
  <path id="Tracé_72" data-name="Tracé 72" d="M353.01,274.279a5.564,5.564,0,0,0-3.485-.721,6.4,6.4,0,0,0,2.222,2.992,5.559,5.559,0,0,0,3.485.721A6.4,6.4,0,0,0,353.01,274.279Z" transform="translate(-307.459 -252.137)" fill="url(#linear-gradient)"/>
  <path id="Tracé_73" data-name="Tracé 73" d="M357.777,348.571H349.6a2,2,0,0,0,0,3.979h8.176a2,2,0,0,0,0-3.979Z" transform="translate(-306.078 -309.549)" fill="url(#linear-gradient)"/>
  <path id="Tracé_74" data-name="Tracé 74" d="M384.5,259.215H338.653a4.236,4.236,0,0,0-4.061,4.391v24.152a4.236,4.236,0,0,0,4.061,4.391H384.5a4.236,4.236,0,0,0,4.061-4.391V263.606a4.236,4.236,0,0,0-4.061-4.391Zm-46.977,3a5.983,5.983,0,0,1,4.015.744,6.944,6.944,0,0,1,2.488,3.487l.072.241-.231.044a5.672,5.672,0,0,1-.995.079,5.575,5.575,0,0,1-3.02-.823,6.945,6.945,0,0,1-2.488-3.487l-.072-.241Zm9.951,22.423h-8.176a2.439,2.439,0,0,1,0-4.863h8.176a2.439,2.439,0,0,1,0,4.863Zm37.2-.442a2.566,2.566,0,0,1-2.453,2.652h-6.132a2.566,2.566,0,0,1-2.453-2.652v-3.978a2.566,2.566,0,0,1,2.453-2.652h6.132a2.566,2.566,0,0,1,2.453,2.652Z" transform="translate(-295.771 -241.191)" fill="url(#linear-gradient-3)"/>
  <path id="Tracé_75" data-name="Tracé 75" d="M522.32,362.209h-2.657a.776.776,0,0,0,0,1.547h2.657a.776.776,0,0,0,0-1.547Zm0,1.105h-2.657a.333.333,0,0,1,0-.663h2.657a.333.333,0,0,1,0,.663Z" transform="translate(-440.062 -319.982)" fill="url(#linear-gradient)"/>
  <path id="Tracé_76" data-name="Tracé 76" d="M544.894,362.209h-2.658a.776.776,0,0,0,0,1.547h2.658a.776.776,0,0,0,0-1.547Zm0,1.105h-2.658a.333.333,0,0,1,0-.663h2.658a.333.333,0,0,1,0,.663Z" transform="translate(-457.73 -319.982)" fill="url(#linear-gradient)"/>
  <path id="Tracé_77" data-name="Tracé 77" d="M522.32,353.744h-2.657a.776.776,0,0,0,0,1.547h2.657a.776.776,0,0,0,0-1.547Zm0,1.105h-2.657a.333.333,0,0,1,0-.663h2.657a.333.333,0,0,1,0,.663Z" transform="translate(-440.062 -313.506)" fill="url(#linear-gradient)"/>
  <path id="Tracé_78" data-name="Tracé 78" d="M544.894,353.744h-2.658a.776.776,0,0,0,0,1.547h2.658a.776.776,0,0,0,0-1.547Zm0,1.105h-2.658a.333.333,0,0,1,0-.663h2.658a.333.333,0,0,1,0,.663Z" transform="translate(-457.73 -313.506)" fill="url(#linear-gradient)"/>
  <path id="Tracé_79" data-name="Tracé 79" d="M522.32,345.279h-2.657a.776.776,0,0,0,0,1.547h2.657a.776.776,0,0,0,0-1.547Zm0,1.105h-2.657a.333.333,0,0,1,0-.663h2.657a.333.333,0,0,1,0,.663Z" transform="translate(-440.062 -307.03)" fill="url(#linear-gradient)"/>
  <path id="Tracé_80" data-name="Tracé 80" d="M544.894,345.279h-2.658a.776.776,0,0,0,0,1.547h2.658a.776.776,0,0,0,0-1.547Zm0,1.105h-2.658a.333.333,0,0,1,0-.663h2.658a.333.333,0,0,1,0,.663Z" transform="translate(-457.73 -307.03)" fill="url(#linear-gradient)"/>
  <path id="Tracé_81" data-name="Tracé 81" d="M273.516,298.211s-2.9,13.259.645,13.259,11.939-15,11.939-15,8.712-4.885,5.163-6.629-8.067,2.791-8.067,2.791l-5.212,7.825-.273-3.987Z" transform="translate(-247.093 -264.312)" fill="#a0616a"/>
  <path id="Tracé_82" data-name="Tracé 82" d="M279.673,272.444l-1.936-2.093s-3.872,2.442-4.195,4.885-1.936,10.118-1.936,10.118l5.969.523,1.936-3.14Z" transform="translate(-246.473 -249.71)" fill="#cfcce0"/>
  <path id="Tracé_83" data-name="Tracé 83" d="M723.446,227.978c-.243-.776-3.291-3.414-1.423-3.858l1.532,2.209,7.043-7.615.708.766Z" transform="translate(-598.532 -210.207)" fill="url(#linear-gradient-3)"/>
  <path id="Tracé_84" data-name="Tracé 84" d="M723.446,338.172c-.243-.776-3.291-3.414-1.423-3.858l1.532,2.209,7.043-7.615.708.766Z" transform="translate(-598.532 -294.507)" fill="url(#linear-gradient-3)"/>
  <path id="Tracé_85" data-name="Tracé 85" d="M723.446,449.94c-.243-.776-3.291-3.414-1.423-3.858l1.532,2.209,7.043-7.615.708.766Z" transform="translate(-598.532 -380.01)" fill="url(#linear-gradient-3)"/>
  <ellipse id="Ellipse_2" data-name="Ellipse 2" cx="2.173" cy="2.35" rx="2.173" ry="2.35" transform="translate(144.072 12.272)" fill="#1f2324"/>
  <rect id="Rectangle_200" data-name="Rectangle 200" width="34.989" height="0.47" transform="translate(154.395 14.387)" fill="#1f2324"/>
  <ellipse id="Ellipse_3" data-name="Ellipse 3" cx="2.173" cy="2.35" rx="2.173" ry="2.35" transform="translate(144.072 38.167)" fill="#1f2324"/>
  <rect id="Rectangle_201" data-name="Rectangle 201" width="34.989" height="0.47" transform="translate(154.395 40.282)" fill="#1f2324"/>
  <ellipse id="Ellipse_4" data-name="Ellipse 4" cx="2.173" cy="2.35" rx="2.173" ry="2.35" transform="translate(144.072 64.432)" fill="#1f2324"/>
  <rect id="Rectangle_202" data-name="Rectangle 202" width="34.989" height="0.47" transform="translate(154.395 66.547)" fill="#1f2324"/>
  <path id="Tracé_86" data-name="Tracé 86" d="M560.906,273.47H550.04V261.485h7.389v.47h-6.954V273h10v-5.4h.435Z" transform="translate(-430.504 -200.038)" fill="#1f2324"/>
  <path id="Tracé_87" data-name="Tracé 87" d="M560.906,161.47H550.04V149.485h7.389v.47h-6.954V161h10v-5.4h.435Z" transform="translate(-430.504 -114.357)" fill="#1f2324"/>
  <path id="Tracé_88" data-name="Tracé 88" d="M560.906,47.47H550.04V35.485h7.389v.47h-6.954V47h10v-5.4h.435Z" transform="translate(-430.504 -27.146)" fill="#1f2324"/>
</svg>
