<svg xmlns="http://www.w3.org/2000/svg" xmlns:xlink="http://www.w3.org/1999/xlink" width="138.976" height="38.952" viewBox="0 0 138.976 38.952">
  <defs>
    <linearGradient id="linear-gradient" x1="0.5" x2="0.5" y2="1" gradientUnits="objectBoundingBox">
      <stop offset="0" stop-color="#c1bcfd"/>
      <stop offset="1" stop-color="#3489e0"/>
    </linearGradient>
    <linearGradient id="linear-gradient-4" x1="0.5" x2="0.5" y2="1" gradientUnits="objectBoundingBox">
      <stop offset="0" stop-color="#64c4b9"/>
      <stop offset="0.655" stop-color="#45d3cb"/>
      <stop offset="1" stop-color="#19e8e3"/>
    </linearGradient>
  </defs>
  <g id="surface1" transform="translate(-89.07 -161.852)">
    <path id="Tracé_1" data-name="Tracé 1" d="M92.012,185.772a8.7,8.7,0,0,1,2.577-4.1,30.11,30.11,0,0,1,4.728-3.891,2.286,2.286,0,0,0,1,.5c-.013.435-.021.87-.021,1.305a47.966,47.966,0,0,0,.346,5.746,2.39,2.39,0,0,0-1.515,2.238c0,.068.005.136.011.2-.493.1-.972.188-1.438.253a8.364,8.364,0,0,1-4.75-.343A15.83,15.83,0,0,1,92.012,185.772Zm2.4-16.4a15.092,15.092,0,0,0,4.329,5.464,2.428,2.428,0,0,0-.048,2.1,31.318,31.318,0,0,0-4.838,3.99,12.748,12.748,0,0,0-2.394,3.269,16.2,16.2,0,0,1,2.95-14.823Zm6.275,4.174a2.307,2.307,0,0,0-1.288.489c-2.426-2.137-3.882-4.152-4.172-5.585a15.525,15.525,0,0,1,8.536-4.607C102.266,165.841,101.211,169.458,100.684,173.548Zm20.163-.155a8.691,8.691,0,0,1-2.577,4.1,28.086,28.086,0,0,1-3.621,3.108,2.311,2.311,0,0,0-3.725.424,44.65,44.65,0,0,1-4.316-2.05c-1.3-.707-2.506-1.438-3.6-2.178a2.443,2.443,0,0,0,.159-.862,2.411,2.411,0,0,0-.045-.465c.341-.185.682-.367,1.03-.544,7.327-3.753,13.46-4.678,15.755-3.448A15.681,15.681,0,0,1,120.847,173.393Zm-5.674,8.123a29.493,29.493,0,0,0,3.834-3.28,12.681,12.681,0,0,0,2.394-3.269,16.179,16.179,0,0,1,.668,4.615,16.4,16.4,0,0,1-.279,3.005c-.918.528-2.551.634-4.689.28-.585-.1-1.2-.226-1.826-.384.007-.079.01-.16.01-.239A2.41,2.41,0,0,0,115.173,181.516Zm-13.526,3.663a48.387,48.387,0,0,1-.314-5.6c0-.446.007-.881.018-1.313a2.354,2.354,0,0,0,1.084-.6c1.176.8,2.42,1.553,3.687,2.241a45.293,45.293,0,0,0,4.484,2.124,1.8,1.8,0,0,0-.011.212,2.39,2.39,0,0,0,.166.878q-1,.571-2.048,1.112a45.506,45.506,0,0,1-5.147,2.254A2.339,2.339,0,0,0,101.648,185.178Zm4.782-21.57A15.525,15.525,0,0,1,119,170.092c-3.567-.689-9.793,1.066-15.317,3.894q-.5.257-.988.522a2.356,2.356,0,0,0-1.02-.8c.65-5.268,2.13-8.912,3.7-10.064C105.727,163.624,106.076,163.608,106.43,163.608ZM93.858,189.073a9.206,9.206,0,0,0,1.789.161,15.91,15.91,0,0,0,2.2-.166c.522-.073,1.06-.171,1.611-.288a2.331,2.331,0,0,0,2.02,1.183l.019,0a15.734,15.734,0,0,0,2.263,5.36A15.615,15.615,0,0,1,93.858,189.073Zm11.523,6.445c-1.1-.8-2.157-2.831-2.912-5.784a2.4,2.4,0,0,0,1.352-2.167c0-.019,0-.036,0-.052a46.312,46.312,0,0,0,5.357-2.339q1.114-.566,2.173-1.18a2.307,2.307,0,0,0,1.592.642,2.333,2.333,0,0,0,2-1.153c.687.174,1.356.318,1.994.424a14.991,14.991,0,0,0,2.383.215,7.287,7.287,0,0,0,2.183-.3,15.718,15.718,0,0,1-15.075,11.729C106.076,195.556,105.727,195.54,105.381,195.518Zm1.049-33.666a17.1,17.1,0,0,0-11.965,4.9l-.045-.025c-.019.038-.032.077-.048.114a17.853,17.853,0,0,0-5.3,12.738,17.363,17.363,0,1,0,17.359-17.73" fill="#3489e0"/>
    <g id="Groupe_2" data-name="Groupe 2" transform="translate(130.991 165.362)">
      <g id="Groupe_1" data-name="Groupe 1" transform="translate(0 0)">
        <path id="Tracé_2" data-name="Tracé 2" d="M2.281-31.266H8.895a7.9,7.9,0,0,1,4.771,1.305,4.885,4.885,0,0,1,1.789,4.231,4.851,4.851,0,0,1-2.663,4.666q4.545.828,4.548,5.493a5.625,5.625,0,0,1-1.864,4.405A7.375,7.375,0,0,1,10.365-9.5H2.281Zm4.856,8.517h.383a4.145,4.145,0,0,0,2.428-.576,2.2,2.2,0,0,0,.8-1.9q0-2.219-3.227-2.219H7.138Zm0,9.42H8.661q3.566,0,3.568-2.426a2.367,2.367,0,0,0-.895-2.078,4.591,4.591,0,0,0-2.673-.642H7.138Zm0,0" transform="translate(-2.281 31.266)" fill="url(#linear-gradient)"/>
      </g>
    </g>
    <g id="Groupe_4" data-name="Groupe 4" transform="translate(147.239 173.194)">
      <g id="Groupe_3" data-name="Groupe 3" transform="translate(0 0)">
        <path id="Tracé_3" data-name="Tracé 3" d="M2.728-7.757a7.329,7.329,0,0,1-1.853-5.08,7.38,7.38,0,0,1,1.853-5.091,6.056,6.056,0,0,1,4.729-2.088A5.926,5.926,0,0,1,11.8-18.33v-1.294h4.569V-6.081H11.855V-7.615H11.8A5.547,5.547,0,0,1,7.457-5.69,6.081,6.081,0,0,1,2.728-7.757Zm3.887-7.375a3.116,3.116,0,0,0-.884,2.3,3.141,3.141,0,0,0,.852,2.284,2.979,2.979,0,0,0,2.247.881,2.93,2.93,0,0,0,2.2-.892,3.144,3.144,0,0,0,.873-2.273,3.1,3.1,0,0,0-.895-2.3,2.963,2.963,0,0,0-2.183-.9A3,3,0,0,0,6.615-15.132Zm0,0" transform="translate(-0.875 20.016)" fill="url(#linear-gradient)"/>
      </g>
    </g>
    <g id="Groupe_6" data-name="Groupe 6" transform="translate(165.842 173.194)">
      <g id="Groupe_5" data-name="Groupe 5" transform="translate(0 0)">
        <path id="Tracé_4" data-name="Tracé 4" d="M2.281-6.081V-19.624H6.85V-18.2H6.9a5.278,5.278,0,0,1,3.791-1.817,7.3,7.3,0,0,1,1.96.272,6.846,6.846,0,0,1,1.853.816,4.057,4.057,0,0,1,1.448,1.566A4.864,4.864,0,0,1,16.51-15v8.92H11.941v-7.658a2.771,2.771,0,0,0-.66-1.838,2.133,2.133,0,0,0-1.715-.794,2.63,2.63,0,0,0-1.874.816,2.481,2.481,0,0,0-.841,1.817v7.658Zm0,0" transform="translate(-2.281 20.016)" fill="url(#linear-gradient)"/>
      </g>
    </g>
    <g id="Groupe_8" data-name="Groupe 8" transform="translate(181.955 164.96)">
      <g id="Groupe_7" data-name="Groupe 7" transform="translate(0 0)">
        <path id="Tracé_5" data-name="Tracé 5" d="M7.02-5.107,5.859-6.9c.048-.073.117-.163.2-.272s.272-.3.543-.587.543-.549.8-.772a4.864,4.864,0,0,1,.905-.587,2.155,2.155,0,0,1,.958-.261V-9.49a9.711,9.711,0,0,1-6.081-3.8A11.76,11.76,0,0,1,.875-20.575a11.168,11.168,0,0,1,3.1-8.006,9.983,9.983,0,0,1,7.519-3.263,9.943,9.943,0,0,1,7.519,3.263,11.218,11.218,0,0,1,3.078,8.006,11.736,11.736,0,0,1-2.045,6.842,10,10,0,0,1-5.378,3.981v.1a13.84,13.84,0,0,1,1.374.25,9.726,9.726,0,0,0,1.938.261A4.293,4.293,0,0,0,19.757-9.5a3.46,3.46,0,0,0,1.118-.707l.309-.359,1.523,3.35a2.934,2.934,0,0,1-.17.326,7.408,7.408,0,0,1-.533.7,6.094,6.094,0,0,1-.916.892,5.025,5.025,0,0,1-1.342.718,5.108,5.108,0,0,1-1.8.315A9.732,9.732,0,0,1,14.092-5.3a9.827,9.827,0,0,0-3.919-1.022,4.631,4.631,0,0,0-1.693.3,3.37,3.37,0,0,0-1.118.62ZM6.115-20.575A9.336,9.336,0,0,0,6.4-18.2,6.51,6.51,0,0,0,7.3-16.213a4.116,4.116,0,0,0,1.672,1.4,5.792,5.792,0,0,0,2.524.511,4.66,4.66,0,0,0,4.026-1.784,7.384,7.384,0,0,0,1.321-4.492A7.29,7.29,0,0,0,15.5-25.045a4.677,4.677,0,0,0-4-1.806,4.723,4.723,0,0,0-4.015,1.817A7.211,7.211,0,0,0,6.115-20.575Zm0,0" transform="translate(-0.875 31.844)" fill="url(#linear-gradient-4)"/>
      </g>
    </g>
    <g id="Groupe_10" data-name="Groupe 10" transform="translate(204.95 165.221)">
      <g id="Groupe_9" data-name="Groupe 9" transform="translate(0 0)">
        <path id="Tracé_6" data-name="Tracé 6" d="M2.549-30.642a2.563,2.563,0,0,1,1.906-.827,2.578,2.578,0,0,1,1.917.827,2.688,2.688,0,0,1,.8,1.947,2.717,2.717,0,0,1-.8,1.958,2.587,2.587,0,0,1-1.917.816,2.573,2.573,0,0,1-1.906-.816,2.717,2.717,0,0,1-.8-1.958A2.688,2.688,0,0,1,2.549-30.642ZM2.112-23.1V-9.561H6.681V-23.1Zm0,0" transform="translate(-1.75 31.469)" fill="url(#linear-gradient-4)"/>
      </g>
    </g>
    <g id="Groupe_12" data-name="Groupe 12" transform="translate(212.156 173.194)">
      <g id="Groupe_11" data-name="Groupe 11" transform="translate(0 0)">
        <path id="Tracé_7" data-name="Tracé 7" d="M3.08-7.691a6.631,6.631,0,0,1-2.2-5.145,6.547,6.547,0,0,1,2.3-5.156,8.284,8.284,0,0,1,5.676-2.023,8.178,8.178,0,0,1,5.623,2.034,6.591,6.591,0,0,1,2.29,5.145A6.62,6.62,0,0,1,14.528-7.7,8.159,8.159,0,0,1,8.852-5.69,8.271,8.271,0,0,1,3.08-7.691Zm3.536-7.44a3.116,3.116,0,0,0-.884,2.3,3.141,3.141,0,0,0,.852,2.284,2.979,2.979,0,0,0,2.247.881,2.93,2.93,0,0,0,2.2-.892,3.144,3.144,0,0,0,.873-2.273,3.1,3.1,0,0,0-.895-2.3,2.963,2.963,0,0,0-2.183-.9A3,3,0,0,0,6.615-15.132Zm0,0" transform="translate(-0.875 20.016)" fill="url(#linear-gradient-4)"/>
      </g>
    </g>
    <g id="Groupe_14" data-name="Groupe 14" transform="translate(131.65 196.942)">
      <g id="Groupe_13" data-name="Groupe 13" transform="translate(0 0)">
        <path id="Tracé_8" data-name="Tracé 8" d="M.656-4.453h.575v2.578H2.509v.522H.656Zm0,0" transform="translate(-0.656 4.453)" fill="#666"/>
      </g>
    </g>
    <g id="Groupe_16" data-name="Groupe 16" transform="translate(134.481 196.942)">
      <g id="Groupe_15" data-name="Groupe 15" transform="translate(0 0)">
        <path id="Tracé_9" data-name="Tracé 9" d="M2.318-2.06h-1.3l-.256.707H.188l1.15-3.1h.671l1.161,3.1H2.562Zm-.181-.5L1.668-3.877,1.2-2.56Zm0,0" transform="translate(-0.188 4.453)" fill="#666"/>
      </g>
    </g>
    <g id="Groupe_18" data-name="Groupe 18" transform="translate(138.203 200.042)">
      <g id="Groupe_17" data-name="Groupe 17">
        <path id="Tracé_10" data-name="Tracé 10" fill="#666"/>
      </g>
    </g>
    <g id="Groupe_20" data-name="Groupe 20" transform="translate(140.493 196.942)">
      <g id="Groupe_19" data-name="Groupe 19" transform="translate(0 0)">
        <path id="Tracé_11" data-name="Tracé 11" d="M2.477-2.963a.76.76,0,0,1,.351.283.792.792,0,0,1,.128.457.765.765,0,0,1-.309.653,1.441,1.441,0,0,1-.863.218H.656v-3.1H1.838a1.176,1.176,0,0,1,.756.218.718.718,0,0,1,.266.6A.706.706,0,0,1,2.477-2.963ZM1.231-3.942v.74h.554a.545.545,0,0,0,.351-.1.348.348,0,0,0,.117-.283.335.335,0,0,0-.107-.283.632.632,0,0,0-.362-.076Zm.554,2.067a.8.8,0,0,0,.437-.087.37.37,0,0,0,.128-.315.365.365,0,0,0-.138-.315.746.746,0,0,0-.426-.1H1.231v.816Zm0,0" transform="translate(-0.656 4.453)" fill="#666"/>
      </g>
    </g>
    <g id="Groupe_22" data-name="Groupe 22" transform="translate(143.848 196.942)">
      <g id="Groupe_21" data-name="Groupe 21" transform="translate(0 0)">
        <path id="Tracé_12" data-name="Tracé 12" d="M2.318-2.06h-1.3l-.256.707H.188l1.15-3.1h.671l1.161,3.1H2.562Zm-.181-.5L1.668-3.877,1.2-2.56Zm0,0" transform="translate(-0.188 4.453)" fill="#666"/>
      </g>
    </g>
    <g id="Groupe_24" data-name="Groupe 24" transform="translate(148.017 196.942)">
      <g id="Groupe_23" data-name="Groupe 23" transform="translate(0 0)">
        <path id="Tracé_13" data-name="Tracé 13" d="M3.255-4.453v3.1H2.68L1.231-3.409v2.056H.656v-3.1h.575L2.68-2.408V-4.453Zm0,0" transform="translate(-0.656 4.453)" fill="#666"/>
      </g>
    </g>
    <g id="Groupe_26" data-name="Groupe 26" transform="translate(152.022 196.888)">
      <g id="Groupe_25" data-name="Groupe 25" transform="translate(0 0)">
        <path id="Tracé_14" data-name="Tracé 14" d="M3.482-2.932a1.917,1.917,0,0,1-.2.9,1.224,1.224,0,0,1-.575.555l.458.859H2.577l-.383-.718c-.085.005-.154.011-.2.011a1.591,1.591,0,0,1-.809-.2A1.308,1.308,0,0,1,.67-2.073,2.015,2.015,0,0,1,.5-2.932a1.948,1.948,0,0,1,.17-.848,1.308,1.308,0,0,1,.511-.555,1.591,1.591,0,0,1,.809-.2,1.544,1.544,0,0,1,.8.2,1.246,1.246,0,0,1,.511.555A1.874,1.874,0,0,1,3.482-2.932Zm-2.375,0a1.258,1.258,0,0,0,.234.827.79.79,0,0,0,.65.283.793.793,0,0,0,.65-.283,1.273,1.273,0,0,0,.234-.827,1.266,1.266,0,0,0-.234-.816.8.8,0,0,0-.65-.283.8.8,0,0,0-.65.283A1.25,1.25,0,0,0,1.107-2.932Zm0,0" transform="translate(-0.5 4.531)" fill="#666"/>
      </g>
    </g>
    <g id="Groupe_28" data-name="Groupe 28" transform="translate(156.372 196.942)">
      <g id="Groupe_27" data-name="Groupe 27" transform="translate(0 0)">
        <path id="Tracé_15" data-name="Tracé 15" d="M1.893-1.3a1.28,1.28,0,0,1-.959-.359,1.356,1.356,0,0,1-.341-.979V-4.453h.575v1.806a.9.9,0,0,0,.192.631.708.708,0,0,0,.533.2.67.67,0,0,0,.533-.207.877.877,0,0,0,.192-.62V-4.453h.575v1.817a1.339,1.339,0,0,1-.351.979A1.247,1.247,0,0,1,1.893-1.3Zm0,0" transform="translate(-0.594 4.453)" fill="#666"/>
      </g>
    </g>
    <g id="Groupe_30" data-name="Groupe 30" transform="translate(160.439 196.942)">
      <g id="Groupe_29" data-name="Groupe 29" transform="translate(0 0)">
        <path id="Tracé_16" data-name="Tracé 16" d="M1.231-3.942v.783h1.31v.479H1.231v.8H2.637v.522H.656v-3.1H2.637v.511Zm0,0" transform="translate(-0.656 4.453)" fill="#666"/>
      </g>
    </g>
    <g id="Groupe_32" data-name="Groupe 32" transform="translate(163.405 200.042)">
      <g id="Groupe_31" data-name="Groupe 31">
        <path id="Tracé_17" data-name="Tracé 17" fill="#666"/>
      </g>
    </g>
    <g id="Groupe_34" data-name="Groupe 34" transform="translate(165.694 196.942)">
      <g id="Groupe_33" data-name="Groupe 33" transform="translate(0 0)">
        <path id="Tracé_18" data-name="Tracé 18" d="M1.231-3.942v.783h1.31v.479H1.231v.8H2.637v.522H.656v-3.1H2.637v.511Zm0,0" transform="translate(-0.656 4.453)" fill="#666"/>
      </g>
    </g>
    <g id="Groupe_36" data-name="Groupe 36" transform="translate(169.107 196.942)">
      <g id="Groupe_35" data-name="Groupe 35" transform="translate(0 0)">
        <path id="Tracé_19" data-name="Tracé 19" d="M3.255-4.453v3.1H2.68L1.231-3.409v2.056H.656v-3.1h.575L2.68-2.408V-4.453Zm0,0" transform="translate(-0.656 4.453)" fill="#666"/>
      </g>
    </g>
    <g id="Groupe_38" data-name="Groupe 38" transform="translate(172.771 200.042)">
      <g id="Groupe_37" data-name="Groupe 37">
        <path id="Tracé_20" data-name="Tracé 20" fill="#666"/>
      </g>
    </g>
    <g id="Groupe_40" data-name="Groupe 40" transform="translate(175.061 196.942)">
      <g id="Groupe_39" data-name="Groupe 39" transform="translate(0 0)">
        <path id="Tracé_21" data-name="Tracé 21" d="M.656-4.453h.575v2.578H2.509v.522H.656Zm0,0" transform="translate(-0.656 4.453)" fill="#666"/>
      </g>
    </g>
    <g id="Groupe_42" data-name="Groupe 42" transform="translate(178.18 196.942)">
      <g id="Groupe_41" data-name="Groupe 41" transform="translate(0 0)">
        <path id="Tracé_22" data-name="Tracé 22" d="M.609-4.453h.575v3.1H.609Zm0,0" transform="translate(-0.609 4.453)" fill="#666"/>
      </g>
    </g>
    <g id="Groupe_44" data-name="Groupe 44" transform="translate(180.122 196.888)">
      <g id="Groupe_43" data-name="Groupe 43" transform="translate(0 0)">
        <path id="Tracé_23" data-name="Tracé 23" d="M.5-2.91A1.871,1.871,0,0,1,.681-3.77a1.344,1.344,0,0,1,.543-.566,1.68,1.68,0,0,1,.831-.2,2.05,2.05,0,0,1,.49.054,2.239,2.239,0,0,1,.437.163v.544H2.96a1.756,1.756,0,0,0-.373-.152,1.753,1.753,0,0,0-.49-.065q-.99,0-.99,1.066a1.177,1.177,0,0,0,.234.794.9.9,0,0,0,.692.261.841.841,0,0,0,.554-.152V-2.5H2v-.489H3.163v1.273a2.958,2.958,0,0,1-.607.3,1.67,1.67,0,0,1-.533.087,1.618,1.618,0,0,1-.82-.2,1.284,1.284,0,0,1-.522-.555A1.809,1.809,0,0,1,.5-2.91Zm0,0" transform="translate(-0.5 4.531)" fill="#666"/>
      </g>
    </g>
    <g id="Groupe_46" data-name="Groupe 46" transform="translate(184.253 196.942)">
      <g id="Groupe_45" data-name="Groupe 45" transform="translate(0 0)">
        <path id="Tracé_24" data-name="Tracé 24" d="M3.255-4.453v3.1H2.68L1.231-3.409v2.056H.656v-3.1h.575L2.68-2.408V-4.453Zm0,0" transform="translate(-0.656 4.453)" fill="#666"/>
      </g>
    </g>
    <g id="Groupe_48" data-name="Groupe 48" transform="translate(188.365 196.942)">
      <g id="Groupe_47" data-name="Groupe 47" transform="translate(0 0)">
        <path id="Tracé_25" data-name="Tracé 25" d="M1.231-3.942v.783h1.31v.479H1.231v.8H2.637v.522H.656v-3.1H2.637v.511Zm0,0" transform="translate(-0.656 4.453)" fill="#666"/>
      </g>
    </g>
    <g id="Groupe_50" data-name="Groupe 50" transform="translate(191.33 200.042)">
      <g id="Groupe_49" data-name="Groupe 49">
        <path id="Tracé_26" data-name="Tracé 26" fill="#666"/>
      </g>
    </g>
    <g id="Groupe_52" data-name="Groupe 52" transform="translate(193.62 196.942)">
      <g id="Groupe_51" data-name="Groupe 51" transform="translate(0 0)">
        <path id="Tracé_27" data-name="Tracé 27" d="M.656-4.453H1.668a1.431,1.431,0,0,1,.937.261.931.931,0,0,1,.309.751,1.009,1.009,0,0,1-.309.783,1.315,1.315,0,0,1-.895.272H1.231v1.033H.656ZM1.668-2.9a.762.762,0,0,0,.479-.12.483.483,0,0,0,.16-.413.43.43,0,0,0-.16-.381.78.78,0,0,0-.479-.12H1.231V-2.9Zm0,0" transform="translate(-0.656 4.453)" fill="#666"/>
      </g>
    </g>
    <g id="Groupe_54" data-name="Groupe 54" transform="translate(197.013 196.888)">
      <g id="Groupe_53" data-name="Groupe 53" transform="translate(0 0)">
        <path id="Tracé_28" data-name="Tracé 28" d="M1.991-1.322a1.591,1.591,0,0,1-.809-.2A1.308,1.308,0,0,1,.67-2.073,2.015,2.015,0,0,1,.5-2.932a1.948,1.948,0,0,1,.17-.848,1.308,1.308,0,0,1,.511-.555,1.591,1.591,0,0,1,.809-.2,1.544,1.544,0,0,1,.8.2,1.246,1.246,0,0,1,.511.555,1.874,1.874,0,0,1,.181.848,1.939,1.939,0,0,1-.181.859,1.246,1.246,0,0,1-.511.555A1.544,1.544,0,0,1,1.991-1.322Zm0-.544a.81.81,0,0,0,.65-.272,1.216,1.216,0,0,0,.234-.794,1.179,1.179,0,0,0-.234-.783.819.819,0,0,0-.65-.272.834.834,0,0,0-.65.272,1.165,1.165,0,0,0-.234.783,1.2,1.2,0,0,0,.234.794A.825.825,0,0,0,1.991-1.866Zm0,0" transform="translate(-0.5 4.531)" fill="#666"/>
      </g>
    </g>
    <g id="Groupe_56" data-name="Groupe 56" transform="translate(201.363 196.942)">
      <g id="Groupe_55" data-name="Groupe 55" transform="translate(0 0)">
        <path id="Tracé_29" data-name="Tracé 29" d="M1.893-1.3a1.28,1.28,0,0,1-.959-.359,1.356,1.356,0,0,1-.341-.979V-4.453h.575v1.806a.9.9,0,0,0,.192.631.708.708,0,0,0,.533.2.67.67,0,0,0,.533-.207.877.877,0,0,0,.192-.62V-4.453h.575v1.817a1.339,1.339,0,0,1-.351.979A1.247,1.247,0,0,1,1.893-1.3Zm0,0" transform="translate(-0.594 4.453)" fill="#666"/>
      </g>
    </g>
    <g id="Groupe_58" data-name="Groupe 58" transform="translate(205.43 196.942)">
      <g id="Groupe_57" data-name="Groupe 57" transform="translate(0 0)">
        <path id="Tracé_30" data-name="Tracé 30" d="M2.392-1.353,1.775-2.539H1.231v1.186H.656v-3.1h1.1a1.358,1.358,0,0,1,.873.239.846.846,0,0,1,.3.7,1,1,0,0,1-.149.555.815.815,0,0,1-.415.337l.671,1.273ZM1.231-3.05h.533a.691.691,0,0,0,.415-.1.43.43,0,0,0,.138-.359.376.376,0,0,0-.138-.326.717.717,0,0,0-.426-.1H1.231Zm0,0" transform="translate(-0.656 4.453)" fill="#666"/>
      </g>
    </g>
    <g id="Groupe_60" data-name="Groupe 60" transform="translate(208.658 200.042)">
      <g id="Groupe_59" data-name="Groupe 59">
        <path id="Tracé_31" data-name="Tracé 31" fill="#666"/>
      </g>
    </g>
    <g id="Groupe_62" data-name="Groupe 62" transform="translate(210.745 196.942)">
      <g id="Groupe_61" data-name="Groupe 61" transform="translate(0 0)">
        <path id="Tracé_32" data-name="Tracé 32" d="M1.222-3.92H.359v-.533h2.3v.533H1.8v2.567H1.222Zm0,0" transform="translate(-0.359 4.453)" fill="#666"/>
      </g>
    </g>
    <g id="Groupe_64" data-name="Groupe 64" transform="translate(214.254 196.888)">
      <g id="Groupe_63" data-name="Groupe 63" transform="translate(0 0)">
        <path id="Tracé_33" data-name="Tracé 33" d="M1.991-1.322a1.591,1.591,0,0,1-.809-.2A1.308,1.308,0,0,1,.67-2.073,2.015,2.015,0,0,1,.5-2.932a1.948,1.948,0,0,1,.17-.848,1.308,1.308,0,0,1,.511-.555,1.591,1.591,0,0,1,.809-.2,1.544,1.544,0,0,1,.8.2,1.246,1.246,0,0,1,.511.555,1.874,1.874,0,0,1,.181.848,1.939,1.939,0,0,1-.181.859,1.246,1.246,0,0,1-.511.555A1.544,1.544,0,0,1,1.991-1.322Zm0-.544a.81.81,0,0,0,.65-.272,1.216,1.216,0,0,0,.234-.794,1.179,1.179,0,0,0-.234-.783.819.819,0,0,0-.65-.272.834.834,0,0,0-.65.272,1.165,1.165,0,0,0-.234.783,1.2,1.2,0,0,0,.234.794A.825.825,0,0,0,1.991-1.866Zm0,0" transform="translate(-0.5 4.531)" fill="#666"/>
      </g>
    </g>
    <g id="Groupe_66" data-name="Groupe 66" transform="translate(218.603 196.942)">
      <g id="Groupe_65" data-name="Groupe 65" transform="translate(0 0)">
        <path id="Tracé_34" data-name="Tracé 34" d="M1.893-1.3a1.28,1.28,0,0,1-.959-.359,1.356,1.356,0,0,1-.341-.979V-4.453h.575v1.806a.9.9,0,0,0,.192.631.708.708,0,0,0,.533.2.67.67,0,0,0,.533-.207.877.877,0,0,0,.192-.62V-4.453h.575v1.817a1.339,1.339,0,0,1-.351.979A1.247,1.247,0,0,1,1.893-1.3Zm0,0" transform="translate(-0.594 4.453)" fill="#666"/>
      </g>
    </g>
    <g id="Groupe_68" data-name="Groupe 68" transform="translate(222.574 196.888)">
      <g id="Groupe_67" data-name="Groupe 67" transform="translate(0 0)">
        <path id="Tracé_35" data-name="Tracé 35" d="M1.559-1.322a2.261,2.261,0,0,1-.522-.065,2.336,2.336,0,0,1-.522-.185v-.577a2.142,2.142,0,0,0,1.012.315.616.616,0,0,0,.362-.1A.318.318,0,0,0,2.028-2.2a.335.335,0,0,0-.075-.218.613.613,0,0,0-.192-.141q-.12-.053-.32-.131A3.606,3.606,0,0,1,.974-2.9a.9.9,0,0,1-.309-.272A.864.864,0,0,1,.548-3.65a.782.782,0,0,1,.277-.642A1.186,1.186,0,0,1,1.6-4.531a1.991,1.991,0,0,1,.458.054,1.46,1.46,0,0,1,.4.141v.555a1.71,1.71,0,0,0-.841-.25.645.645,0,0,0-.362.087.278.278,0,0,0-.128.239.271.271,0,0,0,.128.239,3.116,3.116,0,0,0,.415.185,3.233,3.233,0,0,1,.479.218.92.92,0,0,1,.33.294.93.93,0,0,1,.149.5.861.861,0,0,1-.3.7A1.137,1.137,0,0,1,1.559-1.322Zm0,0" transform="translate(-0.516 4.531)" fill="#666"/>
      </g>
    </g>
    <g id="Groupe_70" data-name="Groupe 70" transform="translate(225.634 200.042)">
      <g id="Groupe_69" data-name="Groupe 69">
        <path id="Tracé_36" data-name="Tracé 36"/>
      </g>
    </g>
  </g>
</svg>
