<svg xmlns="http://www.w3.org/2000/svg" xmlns:xlink="http://www.w3.org/1999/xlink" width="310" height="214" viewBox="0 0 310 214">
  <defs>
    <linearGradient id="linear-gradient" x1="0.5" x2="0.5" y2="1" gradientUnits="objectBoundingBox">
      <stop offset="0" stop-color="#c1bcfd"/>
      <stop offset="1" stop-color="#3489e0"/>
    </linearGradient>
    <linearGradient id="linear-gradient-6" x1="0.5" x2="0.5" y2="1" gradientUnits="objectBoundingBox">
      <stop offset="0" stop-color="#64c4b9"/>
      <stop offset="0.655" stop-color="#45d3cb"/>
      <stop offset="1" stop-color="#19e8e3"/>
    </linearGradient>
  </defs>
  <g id="transfer-money" transform="translate(0 -0.241)">
    <ellipse id="Ellipse_5" data-name="Ellipse 5" cx="105.032" cy="99.817" rx="105.032" ry="99.817" transform="translate(27.886 0.241)" fill="#666"/>
    <ellipse id="Ellipse_6" data-name="Ellipse 6" cx="41.747" cy="6.36" rx="41.747" ry="6.36" transform="translate(0 201.521)" fill="#666"/>
    <ellipse id="Ellipse_7" data-name="Ellipse 7" cx="64.595" cy="9.841" rx="64.595" ry="9.841" transform="translate(180.81 188.095)" fill="#666"/>
    <path id="Tracé_89" data-name="Tracé 89" d="M856.091,435.945s.55,1.745-2.566,3.316-4.033,7.505-.367,9.251,4.766,4.014,2.933,5.585-5.133,5.76-.733,6.807,4.949,3.142,3.666,4.014,2.933-1.571,2.933-1.571.733,4.189,4.583,3.142,14.665-20.945,9.166-23.737S856.091,435.945,856.091,435.945Z" transform="translate(-625.038 -332.597)" fill="#2f2e41"/>
    <path id="Tracé_90" data-name="Tracé 90" d="M875.026,491.868s1.9,6.337-1.426,6.79a13.347,13.347,0,0,0-5.7,2.263l6.18,7.695h11.409l7.131-6.789s-9.508-6.789-7.606-10.863S875.026,491.868,875.026,491.868Z" transform="translate(-637.329 -371.666)" fill="#ffb9b9"/>
    <path id="Tracé_91" data-name="Tracé 91" d="M875.026,491.868s1.9,6.337-1.426,6.79a13.347,13.347,0,0,0-5.7,2.263l6.18,7.695h11.409l7.131-6.789s-9.508-6.789-7.606-10.863S875.026,491.868,875.026,491.868Z" transform="translate(-637.329 -371.666)" opacity="0.1"/>
    <path id="Tracé_92" data-name="Tracé 92" d="M852.787,722.585l10.934,3.621,7.606.452-.475-6.337L855.164,715.9Z" transform="translate(-612.237 -523.626)" fill="#ffb9b9"/>
    <path id="Tracé_93" data-name="Tracé 93" d="M953,770.508s0,6.337.951,6.337,13.786-1.358,17.589,0,9.508-3.621,6.655-6.337-7.5-6.789-10.408-5.884S953,767.792,953,767.792Z" transform="translate(-698.43 -572.907)" fill="#575a89"/>
    <path id="Tracé_94" data-name="Tracé 94" d="M820.967,764.974s-5.7,10.863-1.9,11.768,8.082-.453,8.557-.905,7.131-2.263,8.081-1.358.951-3.621.951-3.621Z" transform="translate(-601.334 -573.257)" fill="#575a89"/>
    <path id="Tracé_95" data-name="Tracé 95" d="M833.711,709.359s-9.032,11.768-2.377,14.936,38.506,3.169,40.883,0,3.328-13.126,0-14.031S833.711,709.359,833.711,709.359Z" transform="translate(-609.324 -532.579)" fill="#2f2e41"/>
    <path id="Tracé_96" data-name="Tracé 96" d="M833.711,709.359s-9.032,11.768-2.377,14.936,38.506,3.169,40.883,0,3.328-13.126,0-14.031S833.711,709.359,833.711,709.359Z" transform="translate(-609.324 -532.579)" opacity="0.2"/>
    <ellipse id="Ellipse_8" data-name="Ellipse 8" cx="10.934" cy="10.41" rx="10.934" ry="10.41" transform="translate(230.566 102.549)" fill="#ffb9b9"/>
    <path id="Tracé_97" data-name="Tracé 97" d="M845.987,527.472l9.508-1.81s2.377,7.242,9.983,5.884,9.508-5.884,9.508-5.884,5.7,2.263,6.18,2.263,6.655,2.263,6.655,3.621-7.131,14.937-7.131,14.937l.951,24.442-35.178-.905,2.377-23.989Z" transform="translate(-621.6 -398.218)" fill="url(#linear-gradient)"/>
    <path id="Tracé_98" data-name="Tracé 98" d="M823.365,576.22s-2.852,23.989-.951,25.8,9.507,6.789,9.507,6.789v-5.431l-3.8-6.789,3.8-15.842Z" transform="translate(-604.207 -435.198)" fill="#ffb9b9"/>
    <path id="Tracé_99" data-name="Tracé 99" d="M977.077,573.692s-1.664,24.668-1.664,25.573-4.278,4.074-5.7,4.074-2.377-2.263-2.377-2.263l3.328-3.621L968.282,578.9Z" transform="translate(-708.716 -433.349)" fill="#ffb9b9"/>
    <path id="Tracé_100" data-name="Tracé 100" d="M929.607,688.922s21.392-11.315,21.868,0-10.934,15.842-10.934,15.842-29.473,8.415-30.662,5.339-3.565-8.055-1.664-8.507,4.278-1.358,5.229-.453,12.835-6.789,12.835-6.789Z" transform="translate(-665.764 -513.953)" fill="#2f2e41"/>
    <path id="Tracé_101" data-name="Tracé 101" d="M987.382,697.562s-4.279,1.811-5.7,3.169-7.606,3.621-7.606,3.621" transform="translate(-713.555 -523.951)" fill="none" stroke="#000" stroke-miterlimit="10" stroke-width="2" opacity="0.2"/>
    <path id="Tracé_102" data-name="Tracé 102" d="M829.027,533.308l-2.852-.905s-10.458,10.41-7.131,13.126,5.229,3.621,6.18,4.526,5.7,1.358,5.7,1.358Z" transform="translate(-601.788 -403.148)" fill="url(#linear-gradient)"/>
    <path id="Tracé_103" data-name="Tracé 103" d="M962.186,544.2l4.278.905s3.328,6.789,4.278,7.695-1.426.452-2.852,2.263-2.852,4.979-5.7,4.979-6.655-4.526-6.655-4.526Z" transform="translate(-700.245 -411.777)" fill="url(#linear-gradient)"/>
    <path id="Tracé_104" data-name="Tracé 104" d="M785.686,700.062s-18.064-12.221-24.244-3.169,26.621,21.273,31.375,23.084,9.032,3.621,9.032,3.621,4.279-9.958,4.279-11.768-3.328-1.811-4.279-1.811-5.229-.905-6.18-2.263S785.686,700.062,785.686,700.062Z" transform="translate(-560.349 -521.019)" fill="#2f2e41"/>
    <path id="Tracé_105" data-name="Tracé 105" d="M813.966,705.988s4.754,3.621,9.032,4.526,5.7,3.169,5.7,3.169" transform="translate(-598.612 -530.114)" fill="none" stroke="#000" stroke-miterlimit="10" stroke-width="2" opacity="0.2"/>
    <path id="Tracé_106" data-name="Tracé 106" d="M837.731,635.965l.38,19.164a2.466,2.466,0,0,0,2.548,2.354l37.457-.4a2.468,2.468,0,0,0,2.487-2.261l1.137-18.764a2.333,2.333,0,0,0-.683-1.785,2.581,2.581,0,0,0-1.832-.753H840.25a2.585,2.585,0,0,0-1.8.719A2.34,2.34,0,0,0,837.731,635.965Z" transform="translate(-615.673 -477.109)" fill="#575a89"/>
    <path id="Tracé_107" data-name="Tracé 107" d="M893.74,423.04s.609,1.934-2.843,3.674-4.467,8.314-.406,10.248,5.28,4.447,3.249,6.188-5.686,6.381-.812,7.541,5.483,3.48,4.062,4.447,3.249-1.74,3.249-1.74.812,4.64,5.077,3.48,8.52-22.249,3.766-27.68C904.661,424.147,893.74,423.04,893.74,423.04Z" transform="translate(-651.656 -323.158)" fill="#2f2e41"/>
    <path id="Tracé_108" data-name="Tracé 108" d="M904.13,412.033c0-2.833,8.9-.8,12.718,3.158,2.643,2.739,6.657,6.859,3.293,9.764s5.765,6.712,8.214,7.867,7.282,4.685,2.918,7.053-4.294,4.759-2.652,5.325-3.622-.842-3.622-.842.532,4.677-3.9,4.655-17.159-23.23-14.12-29.681C909.8,413.334,904.13,412.033,904.13,412.033Z" transform="translate(-663.343 -314.141)" fill="#2f2e41"/>
    <path id="Tracé_109" data-name="Tracé 109" d="M877.63,413.212c-11.9-.682-13.1,7.848-13.1,7.848.082,4.937,8.316,2.531,10.6,3.267,2.759-1.89,8.077-5.465,11.881-8.017A18.581,18.581,0,0,0,877.63,413.212Z" transform="translate(-634.914 -315.941)" fill="#2f2e41"/>
    <path id="Tracé_110" data-name="Tracé 110" d="M701.675,392.127S691,344.483,624.169,309.92" transform="translate(-462.352 -240.419)" fill="none" stroke="#3f3d56" stroke-miterlimit="10" stroke-width="2"/>
    <path id="Tracé_111" data-name="Tracé 111" d="M575.052,254.891l.134.522-2.7.624.852,2.521-.538.164-1.037-3.071Z" transform="translate(-410.481 -186.429)" fill="#3f3d56"/>
    <path id="Tracé_112" data-name="Tracé 112" d="M76.136,759.931c0,6.034-3.768,8.142-8.415,8.142q-.162,0-.322,0c-.215,0-.429-.014-.639-.028-4.195-.282-7.454-2.5-7.454-8.11,0-5.808,7.795-13.136,8.381-13.679h0l.034-.031S76.136,753.9,76.136,759.931Z" transform="translate(-56.821 -559.54)" fill="url(#linear-gradient)"/>
    <path id="Tracé_113" data-name="Tracé 113" d="M79.444,767.149l3.078-4.095L79.436,767.6l-.008.47c-.215,0-.429-.014-.639-.028L79.12,762l0-.047.006-.009.031-.57-3.093-4.556,3.1,4.128.007.121.251-4.562L76.774,751.8l2.681,3.907.261-9.457v0l-.044,7.458,2.636-2.956-2.647,3.6-.07,4.084,2.462-3.919-2.472,4.52-.039,2.271,3.574-5.456L79.53,762.1Z" transform="translate(-68.851 -559.54)" fill="#3f3d56"/>
    <path id="Tracé_114" data-name="Tracé 114" d="M219.681,787.982l1.8-1.273s1.192,6.338-.138,7.287-6.316,2.532-6.316,4.431-11.3,4.431-11.634,1.583a6.058,6.058,0,0,1,1-4.431s5.319-5.064,5.983-6.014,2.327-2.848,2.327-2.848Z" transform="translate(-160.227 -589.156)" fill="#2f2e41"/>
    <path id="Tracé_115" data-name="Tracé 115" d="M167,488.533s.05.278.136.788c.08.453.189,1.092.322,1.88,1.4,8.112,5.468,31.992,5.192,32.78-.332.949-2.659,4.431,0,5.381a2.008,2.008,0,0,1,.828.857,17.971,17.971,0,0,1,1.406,3.159,133.367,133.367,0,0,1,4.262,16.246c.429,2.133.721,3.849.808,4.747a2.46,2.46,0,0,1,.01.627c-.332,1.266,1.994,5.7,2.992,6.963s2.659,2.532,2.327,3.8,8.31,4.748,9.308,2.532a38.922,38.922,0,0,0,1.33-4.115c.332-.633.665-5.064-1-5.7s-.665-11.711-2.327-13.926a29.5,29.5,0,0,1-2.29-6.239c-.349-1.177-.7-2.431-1.047-3.687-1.4-5.149-2.646-10.331-2.646-10.331l.332-37.031-18.283-2.215-.469.984-.934,1.953Z" transform="translate(-134.135 -368.515)" fill="#2f2e41"/>
    <path id="Tracé_116" data-name="Tracé 116" d="M131.775,721.213s-2.659-2.532-3.989,0-2.659,12.344-4.986,14.559-5.319,13.293-1.994,13.927,6.981-.95,7.313-2.849,7.313-11.711,7.313-12.66-4.654-4.431-4.654-4.431Z" transform="translate(-99.912 -540.427)" fill="#2f2e41"/>
    <path id="Tracé_117" data-name="Tracé 117" d="M198.2,430.831s-4.321,37.031-5.319,40.512-6.316,16.775-7.978,18.99-12.3,20.256-13.629,21.206-3.989,3.482-3.989,3.482-4.986,4.747-5.651,5.7-6.316-1.9-6.648-3.8a18.622,18.622,0,0,1,.665-6.33c.332-1.266-.665-3.165.332-4.115s5.983-5.7,5.983-7.912,8.643-15.192,11.967-18.041,2.659-7.6,2.659-7.6V453.619l-18.283-5.381s1-15.192,3.324-15.192S194.539,427.982,198.2,430.831Z" transform="translate(-125.445 -328.22)" fill="#2f2e41"/>
    <ellipse id="Ellipse_9" data-name="Ellipse 9" cx="10.97" cy="10.445" rx="10.97" ry="10.445" transform="translate(34.855 28.865)" fill="#9f616a"/>
    <path id="Tracé_118" data-name="Tracé 118" d="M188.693,213.47s1.33,4.747,2.992,6.014-4.321,6.647-4.321,6.647l-11.3.633-1.994-6.014s3.657-6.963,2.659-11.394S188.693,213.47,188.693,213.47Z" transform="translate(-139.212 -165.931)" fill="#9f616a"/>
    <path id="Tracé_119" data-name="Tracé 119" d="M188.271,248.18s-2.992.316-3.657,1.266-5.319,3.8-8.975,3.165-5.983-1.583-6.648-1.266S167,258.308,167,258.308l3.657,10.128-.665,27.852-1,7.6s-1.995-2.532,5.983-.95,18.283-1.266,21.607-1.582,8.975-1.266,9.308-3.165-1-8.862-1-8.862l-5.319-21.206-3.324-11.394Z" transform="translate(-134.136 -195.26)" fill="url(#linear-gradient)"/>
    <path id="Tracé_120" data-name="Tracé 120" d="M231.271,241.011s2.812-1.42,3.809-.154,13.629,3.165,13.629,4.115,2.659,26.586,1.994,28.8,1.33,4.748,1.33,4.748l2.327,9.5s6.316,18.041,3.657,18.674-4.986,0-5.983,0-.665-12.027-3.324-15.192-6.316-11.078-6.981-12.66-8.975-23.421-8.643-25.953S231.271,241.011,231.271,241.011Z" transform="translate(-180.28 -189.52)" fill="#d0cde1"/>
    <path id="Tracé_121" data-name="Tracé 121" d="M146.782,248.18s-2.659,0-2.992.633a35.074,35.074,0,0,1-4.986,5.7c-1.33.949-5.983,5.064-5.983,6.013s9.64,7.913,9.64,7.913,3.989,18.674,1.994,25-4.986,21.522-3.657,22.472,4.321,1.266,4.321,0,1.994-14.875,3.657-17.724,6.648-20.889,4.654-25.953S146.782,248.18,146.782,248.18Z" transform="translate(-109.6 -195.26)" fill="#d0cde1"/>
    <path id="Tracé_122" data-name="Tracé 122" d="M277.8,364.847s.332,9.812-3.324,14.876a59.138,59.138,0,0,0-5.983,10.761s-5.983-1.583-6.981-3.482-7.313-.316-7.313-.949,7.646-3.8,8.31-4.431,2.992-.633,4.321-1.9,1.662-4.115,1.662-4.115l1.33-8.229Z" transform="translate(-196.743 -280.594)" fill="#9f616a"/>
    <path id="Tracé_123" data-name="Tracé 123" d="M183.725,146.928a6.587,6.587,0,0,0,2.46-.536,3.049,3.049,0,0,0,.842-4.644,6.258,6.258,0,0,0-1.169-.895l-2.527-1.638a12.579,12.579,0,0,0-3.565-1.8,11.673,11.673,0,0,0-3.644-.2,25.734,25.734,0,0,0-6.981,1.209,11.666,11.666,0,0,0-5.656,3.941c-2.139,2.947-2.169,6.922-.99,10.325s3.417,6.366,5.622,9.268l1.144-5.316a1.928,1.928,0,0,1,.647-1.273c1.028-.7,2.286.734,3.547.724a2.109,2.109,0,0,0,1.8-1.355,7.388,7.388,0,0,0,.4-2.274c.151-1.629.748-3.895,2.368-4.793C179.53,146.827,182.028,147.074,183.725,146.928Z" transform="translate(-130.345 -114.058)" fill="#2f2e41"/>
    <path id="Tracé_124" data-name="Tracé 124" d="M232.258,498.7s-1.123,30.92-1.788,31.869,0-31.967,0-31.967Z" transform="translate(-179.493 -378.427)" opacity="0.1"/>
    <path id="Tracé_125" data-name="Tracé 125" d="M283.664,257.607h2.659s11.3,14.559,9.972,15.509,0,3.481,0,3.481l2.659,4.748s3.324,2.849,2.327,3.482-2.327,3.165-2.327,3.165-6.648-.95-8.643,2.848L286,285.658Z" transform="translate(-217.894 -202.156)" fill="#d0cde1"/>
    <path id="Tracé_137" data-name="Tracé 137" d="M0,0,9.8.167l.311,17.646-9.8-.167Z" transform="translate(57.584 63.722) rotate(-22.438)" fill="#2f2e41"/>
    <path id="Tracé_138" data-name="Tracé 138" d="M1.928,0A1.94,1.94,0,0,1,3.919,1.77a1.785,1.785,0,0,1-1.93,1.706A1.94,1.94,0,0,1,0,1.7,1.785,1.785,0,0,1,1.928,0Z" transform="translate(62.474 67.176) rotate(-22.438)" fill="#6c63ff"/>
    <path id="Tracé_126" data-name="Tracé 126" d="M186.27,314.825s-23.934,18.99-27.923,12.977,4.321-11.078,4.321-11.078,7.313.316,15.623-4.747l8.31-3.482s7.587-10.313,10.172-6.386S192.361,312.871,186.27,314.825Z" transform="translate(-127.148 -234.053)" fill="#9f616a"/>
    <path id="Tracé_127" data-name="Tracé 127" d="M133.093,289.426l-3.657,1.266v9.5l-1.33,1.9s.332,3.8,1.33,4.748,2.992.633,2.327,2.849a11.441,11.441,0,0,0-.332,4.431s5.983,7.28,6.316,6.33,4.986-12.66,5.651-12.66-6.648-18.357-6.648-18.357Z" transform="translate(-106.216 -225.429)" fill="#d0cde1"/>
    <path id="Tracé_128" data-name="Tracé 128" d="M282.765,452.969s3.437-3.165,1.719-3.323-7.7-3.323-8.7-1.741S282.765,452.969,282.765,452.969Z" transform="translate(-212.176 -341.021)" fill="#2f2e41"/>
    <ellipse id="Ellipse_11" data-name="Ellipse 11" cx="4.567" cy="2.446" rx="4.567" ry="2.446" transform="translate(131.395 46.235)" fill="url(#linear-gradient-6)"/>
    <path id="Tracé_129" data-name="Tracé 129" d="M514.939,223.576a46.563,46.563,0,0,0-32.439,0V210.953a58.848,58.848,0,0,1,32.439,0Z" transform="translate(-360.644 -166.365)" fill="none" stroke="#3f3d56" stroke-miterlimit="10" stroke-width="2"/>
    <path id="Tracé_130" data-name="Tracé 130" d="M521.912,225.149a33.6,33.6,0,0,0-23.412,0v-9.11a42.474,42.474,0,0,1,23.412,0Z" transform="translate(-372.131 -170.549)" fill="none" stroke="#3f3d56" stroke-miterlimit="10" stroke-width="2"/>
    <ellipse id="Ellipse_12" data-name="Ellipse 12" cx="5.074" cy="2.446" rx="5.074" ry="2.446" transform="translate(132.41 45.256)" fill="none" stroke="#3f3d56" stroke-miterlimit="10" stroke-width="2"/>
    <path id="Tracé_139" data-name="Tracé 139" d="M4.76,0C7.4.021,9.557,1.125,9.57,2.463S7.451,4.865,4.808,4.84.011,3.711,0,2.373,2.117-.029,4.76,0Z" transform="matrix(0.98, -0.2, 0.2, 0.98, 133.807, 62.929)" fill="url(#linear-gradient-6)"/>
    <path id="Tracé_131" data-name="Tracé 131" d="M525.245,272.806a46.312,46.312,0,0,0-31.783,6.176l-2.651-12.368a58.525,58.525,0,0,1,31.783-6.176Z" transform="translate(-366.61 -204.062)" fill="none" stroke="#3f3d56" stroke-miterlimit="10" stroke-width="2"/>
    <path id="Tracé_132" data-name="Tracé 132" d="M532.012,276.025a33.424,33.424,0,0,0-22.939,4.458l-1.913-8.926A42.242,42.242,0,0,1,530.1,267.1Z" transform="translate(-378.347 -208.98)" fill="none" stroke="#3f3d56" stroke-miterlimit="10" stroke-width="2"/>
    <path id="Tracé_140" data-name="Tracé 140" d="M4.76,0C7.4.021,9.557,1.125,9.57,2.463S7.451,4.865,4.808,4.84.011,3.711,0,2.373,2.117-.029,4.76,0Z" transform="matrix(0.98, -0.2, 0.2, 0.98, 135.239, 61.554)" fill="none" stroke="#3f3d56" stroke-width="2"/>
    <path id="Tracé_141" data-name="Tracé 141" d="M2.419,0c1.34,0,2.43,2.152,2.434,4.8s-1.08,4.8-2.42,4.8S0,7.445,0,4.795,1.078,0,2.419,0Z" transform="translate(133.029 81.451) rotate(-86.019)" fill="url(#linear-gradient-6)"/>
    <path id="Tracé_133" data-name="Tracé 133" d="M520.073,337.328a46.533,46.533,0,0,0-32.361-2.144l.92-12.592a58.81,58.81,0,0,1,32.36,2.144Z" transform="translate(-364.386 -248.714)" fill="none" stroke="#3f3d56" stroke-miterlimit="10" stroke-width="2"/>
    <path id="Tracé_134" data-name="Tracé 134" d="M527.7,338.7a33.585,33.585,0,0,0-23.356-1.547l.664-9.088a42.443,42.443,0,0,1,23.356,1.547Z" transform="translate(-376.33 -252.985)" fill="none" stroke="#3f3d56" stroke-miterlimit="10" stroke-width="2"/>
    <path id="Tracé_142" data-name="Tracé 142" d="M2.419,0c1.34,0,2.43,2.152,2.434,4.8s-1.08,4.8-2.42,4.8S0,7.445,0,4.795,1.078,0,2.419,0Z" transform="translate(134.796 80.491) rotate(-86.019)" fill="none" stroke="#3f3d56" stroke-width="2"/>
    <path id="Tracé_135" data-name="Tracé 135" d="M374.976,264.1s-20.731-2.7-35.536,5.561" transform="translate(-257.937 -206.598)" fill="none" stroke="#3f3d56" stroke-miterlimit="10" stroke-width="2"/>
    <path id="Tracé_136" data-name="Tracé 136" d="M288.1,224.459l.539.162-.842,2.524,2.706.615-.132.523-3.3-.75Z" transform="translate(-206.1 -164.17)" fill="#3f3d56"/>
  </g>
</svg>
